<?xml version="1.0" encoding="utf-8"?>
<!-- Generator: Adobe Illustrator 23.0.0, SVG Export Plug-In . SVG Version: 6.00 Build 0)  -->
<svg version="1.1" id="Capa_1" xmlns="http://www.w3.org/2000/svg" xmlns:xlink="http://www.w3.org/1999/xlink" x="0px" y="0px"
	 viewBox="0 0 72.8 102" style="enable-background:new 0 0 72.8 102;" xml:space="preserve">
<style type="text/css">
	.st0{fill:#FFFFFF;}
</style>
<title>artista</title>
<g>
	<g id="Ñëîé_1">
		<polygon class="st0" points="36.2,11 52,23.2 51.9,23.2 51.9,23.2 54.7,19.5 38.9,7.3 		"/>
		<path class="st0" d="M11,44.8c-0.3,0.4-0.5,0.7-0.7,1.1l15,12.5c0.6-0.5,1.2-1,1.7-1.7l8.4-11.3l10.2-13.7l4.6-6.2L34.5,13.3
			L11,44.8z"/>
		<path class="st0" d="M56.1,3.4l-2.3-1.7c-3.8-2.8-9.2-2.1-12,1.7c0,0,0,0,0,0l-1.2,1.7l0,0l15.8,12.2l1.5-1.9
			C60.6,11.5,59.9,6.2,56.1,3.4z"/>
		<path class="st0" d="M7.2,66.5c-0.2,0-0.5-0.1-0.7-0.2c-0.3-0.2-0.4-0.6-0.4-1l3.3-18.3c0.1-0.6,0.7-1,1.2-0.9
			c0.2,0,0.3,0.1,0.5,0.2l14,11.7c0.3,0.2,0.4,0.6,0.4,1c0,0.4-0.3,0.7-0.7,0.8L7.6,66.4C7.4,66.5,7.3,66.5,7.2,66.5z M11.3,49.1
			L8.6,63.7l13.9-5.3L11.3,49.1z"/>
		<polygon class="st0" points="16,62.1 7.2,65.4 8.9,56.1 		"/>
		<path class="st0" d="M67.8,73.2H6.7c-2.1,0-3.7-1.7-3.7-3.7c0-2.1,1.7-3.7,3.7-3.7h61.1c2.1,0,3.7,1.7,3.7,3.7
			C71.5,71.6,69.9,73.2,67.8,73.2z"/>
		<path class="st0" d="M7.5,97.3h-5l-1.6,4.5H0L4.5,89h0.8l4.6,12.8H9.1L7.5,97.3z M7.2,96.5l-2.3-6.2l-2.2,6.2L7.2,96.5z"/>
		<path class="st0" d="M20.4,101.8h-1.1c-1.7-1.9-3.5-3.7-5.3-5.3c-0.3,0-0.8,0-1.3-0.1v5.5H12V89.1c0.9-0.1,1.8-0.2,2.7-0.2
			c1.3-0.1,2.6,0.4,3.6,1.2c0.6,0.7,0.9,1.6,0.9,2.6l0,0c0,1-0.4,1.9-1.1,2.7c-0.8,0.6-1.8,1-2.8,1C17,98.1,18.7,99.9,20.4,101.8z
			 M12.8,95.5c0.4,0,0.8,0.1,1.1,0.1c0.1,0,0.1,0,0.2,0c1,0.1,2-0.1,2.9-0.5c0.9-0.5,1.4-1.4,1.3-2.4c0.1-0.7-0.2-1.5-0.7-2
			c-0.9-0.7-2-1.1-3.2-1c-0.5,0-1.1,0-1.6,0.1L12.8,95.5z"/>
		<path class="st0" d="M29.4,89.8h-3.3v12h-0.8v-12H22V89h7.5L29.4,89.8z"/>
		<path class="st0" d="M32.7,89v12.8h-0.8V89H32.7z"/>
		<path class="st0" d="M38.7,102c-0.3,0-0.6,0-0.9-0.1c-0.8-0.1-1.6-0.5-2.2-0.9v-0.9c0.8,0.5,1.6,0.9,2.5,1.1
			c0.3,0.1,0.5,0.1,0.8,0.1c1.3,0.1,2.4-0.8,2.5-2.1c0-0.1,0-0.2,0-0.3c-0.1-0.7-0.4-1.3-0.9-1.7c-0.6-0.5-1.2-1-1.9-1.5
			c-1.2-0.9-1.9-1.4-2-1.5c-0.6-0.5-1-1.2-1-2c0-0.2,0-0.4,0.1-0.6c0.1-0.9,0.6-1.6,1.4-2.1c0.6-0.4,1.2-0.5,1.9-0.5
			c0.3,0,0.7,0,1,0.1c0.7,0.1,1.3,0.4,1.8,0.8v0.8c-0.5-0.5-1.2-0.8-1.9-1c-0.3-0.1-0.6-0.1-0.8-0.1c-0.5,0-0.9,0.1-1.3,0.4
			c-0.5,0.4-0.9,1-1,1.7c0,0.2-0.1,0.3-0.1,0.5c0,0.4,0.2,0.8,0.5,1.1c0.6,0.6,1.2,1.1,1.8,1.5c0.9,0.7,1.8,1.5,2.7,2.4
			c0.5,0.4,0.7,1,0.7,1.7c0,0.3,0,0.5-0.1,0.8c-0.1,0.8-0.5,1.4-1.1,1.9C40.3,101.8,39.5,102,38.7,102z"/>
		<path class="st0" d="M51.5,89.8h-3.3v12h-0.8v-12h-3.3V89h7.5V89.8z"/>
		<path class="st0" d="M62.4,101.8h-1.1c-1.7-1.9-3.5-3.7-5.3-5.3c-0.3,0-0.8,0-1.3-0.1v5.5H54V89.1c0.9-0.1,1.8-0.2,2.7-0.2
			c1.3-0.1,2.6,0.4,3.6,1.2c0.6,0.7,0.9,1.6,0.8,2.6l0,0c0,1-0.4,1.9-1.1,2.7c-0.8,0.6-1.8,1-2.8,1C59,98.1,60.7,99.9,62.4,101.8z
			 M54.8,95.5c0.4,0,0.8,0.1,1.1,0.1c0.1,0,0.2,0,0.2,0c1,0.1,2-0.1,2.9-0.5c0.9-0.5,1.4-1.4,1.3-2.4c0.1-0.7-0.2-1.5-0.7-2
			c-0.9-0.7-2-1.1-3.2-1c-0.5,0-1.1,0-1.6,0.1L54.8,95.5z"/>
		<path class="st0" d="M68.7,95.6v6.2h-0.8v-6.2L63.8,89h0.9l3.6,5.7l3.6-5.7h0.9l-4.1,6.5L68.7,95.6z"/>
	</g>
</g>
</svg>
