<?xml version="1.0" encoding="utf-8"?>
<!-- Generator: Adobe Illustrator 23.0.0, SVG Export Plug-In . SVG Version: 6.00 Build 0)  -->
<svg version="1.1" id="Capa_1" xmlns="http://www.w3.org/2000/svg" xmlns:xlink="http://www.w3.org/1999/xlink" x="0px" y="0px"
	 viewBox="0 0 127.9 91.7" style="enable-background:new 0 0 127.9 91.7;" xml:space="preserve">
<style type="text/css">
	.st0{fill:#FFFFFF;}
</style>
<title>comunicativo</title>
<g>
	<g id="Ñëîé_1">
		<path class="st0" d="M24.3,27.4c18-19.6,48.5-20.9,68.1-3c1,0.9,2,1.9,3,3l8.3-8.4c-22.6-24.2-60.6-25.6-84.8-3c-1,1-2,1.9-3,3
			L24.3,27.4z"/>
		<path class="st0" d="M59.8,22.6c-10.6,0-20.7,4.6-27.8,12.5l8.3,8.4c9.1-10.8,25.2-12.1,36-3c1.1,0.9,2.1,1.9,3,3l8.3-8.3
			C80.6,27.2,70.5,22.6,59.8,22.6z"/>
		<path class="st0" d="M59.8,63l12.5-12.5c-5.2-6.9-15.1-8.2-22-3c-1.1,0.9-2.1,1.9-3,3L59.8,63z"/>
		<path class="st0" d="M1.6,81.4c-0.5,1-0.8,2.2-0.8,3.3v0.8c0,1.2,0.3,2.3,0.8,3.3c0.3,0.5,0.8,1,1.3,1.4c0.8,0.5,1.7,0.7,2.6,0.7
			c0.6,0,1.4-0.1,2.5-0.2v0.8c-1,0.1-1.8,0.2-2.3,0.2c-1.2,0.1-2.4-0.2-3.4-0.9c-0.6-0.4-1.1-0.9-1.5-1.6C0.3,88.2,0,86.9,0,85.7
			l0,0v-1.1l0,0c0-1.2,0.3-2.5,0.9-3.6c0.4-0.6,0.9-1.2,1.5-1.6c1-0.6,2.2-0.9,3.4-0.8c0.5,0,1.3,0,2.3,0.1v0.8
			c-1.1-0.1-1.9-0.2-2.5-0.2c-0.9-0.1-1.8,0.2-2.6,0.7C2.4,80.4,2,80.9,1.6,81.4z"/>
		<path class="st0" d="M19.3,80.5c2.1,2.7,2.1,6.5,0,9.3c-1,1.2-2.5,1.9-4.1,1.9c-1.5,0-3-0.7-3.9-1.9c-2-2.8-2-6.5,0-9.3
			c0.9-1.2,2.4-2,3.9-1.9C16.8,78.5,18.3,79.2,19.3,80.5z M18.7,89.2c1.9-2.4,1.9-5.8,0-8.2c-0.8-1.1-2.1-1.7-3.5-1.7
			c-1.3,0-2.6,0.6-3.4,1.7c-1.7,2.5-1.7,5.7,0,8.2c0.8,1.1,2,1.7,3.4,1.7C16.5,90.9,17.8,90.3,18.7,89.2z"/>
		<path class="st0" d="M33.2,78.7v12.8h-0.8v-11l-4.1,8.4l-4.2-8.4v11h-0.8V78.7h0.8l4.2,8.1l4.1-8.1H33.2z"/>
		<path class="st0" d="M46.3,78.7v12.8h-0.8v-11l-4.1,8.4l-4.2-8.4v11h-0.8V78.7h0.8l4.2,8.1l4.1-8.1H46.3z"/>
		<path class="st0" d="M57.7,87.2c0,3-1.4,4.5-4.1,4.5s-4.1-1.5-4.1-4.5v-8.5h0.9v8.4c-0.1,0.9,0.2,1.8,0.6,2.6
			c0.6,0.8,1.6,1.2,2.6,1.1c1,0.1,2-0.3,2.6-1.1c0.4-0.8,0.7-1.7,0.6-2.6v-8.4h0.9L57.7,87.2z"/>
		<path class="st0" d="M69.5,78.7v12.8h-0.8l-7-11.3v11.3h-0.8V78.7h0.8l7,11.3V78.7H69.5z"/>
		<path class="st0" d="M73.7,78.7v12.8h-0.8V78.7H73.7z"/>
		<path class="st0" d="M77.8,81.4c-0.5,1-0.8,2.2-0.8,3.3v0.8c0,1.2,0.3,2.3,0.8,3.3c0.3,0.5,0.8,1,1.3,1.4c0.8,0.5,1.7,0.7,2.6,0.7
			c0.6,0,1.4-0.1,2.5-0.2v0.8c-1,0.1-1.8,0.2-2.3,0.2c-1.2,0.1-2.4-0.2-3.4-0.9c-0.6-0.4-1.1-0.9-1.5-1.6c-0.6-1.1-0.8-2.4-0.8-3.6
			l0,0v-1.1l0,0c0-1.2,0.3-2.5,0.8-3.6c0.4-0.6,0.9-1.2,1.5-1.6c1-0.6,2.2-0.9,3.4-0.8c0.5,0,1.3,0,2.3,0.1v0.8
			c-1.1-0.1-1.9-0.2-2.5-0.2c-0.9-0.1-1.8,0.2-2.6,0.7C78.6,80.4,78.1,80.9,77.8,81.4z"/>
		<path class="st0" d="M92.8,87h-5l-1.6,4.5h-0.8l4.5-12.8h0.8l4.6,12.8h-0.8L92.8,87z M92.5,86.2L90.3,80l-2.2,6.2H92.5z"/>
		<path class="st0" d="M103.8,79.5h-3.3v12h-0.8v-12h-3.3v-0.8h7.5V79.5z"/>
		<path class="st0" d="M107.1,78.7v12.8h-0.8V78.7H107.1z"/>
		<path class="st0" d="M109.6,78.8h0.8l4.2,11.6l4.1-11.6h0.8L115,91.5h-0.8L109.6,78.8z"/>
		<path class="st0" d="M122.3,84.1h5.6v0.8h-5.6v5.8h5.6v0.8h-6.4V78.7h6.4v0.8h-5.6V84.1z"/>
	</g>
</g>
</svg>
