<?xml version="1.0" encoding="utf-8"?>
<!-- Generator: Adobe Illustrator 23.0.0, SVG Export Plug-In . SVG Version: 6.00 Build 0)  -->
<svg version="1.1" id="Capa_1" xmlns="http://www.w3.org/2000/svg" xmlns:xlink="http://www.w3.org/1999/xlink" x="0px" y="0px"
	 viewBox="0 0 86.3 95.5" style="enable-background:new 0 0 86.3 95.5;" xml:space="preserve">
<style type="text/css">
	.st0{fill:#FFFFFF;}
</style>
<title>creativo</title>
<g>
	<g id="Ñëîé_1">
		<path class="st0" d="M1.6,85.2c-0.5,1-0.8,2.2-0.8,3.3v0.8c0,1.2,0.3,2.3,0.8,3.3c0.3,0.5,0.8,1,1.3,1.4c0.8,0.5,1.7,0.7,2.6,0.7
			c0.6,0,1.4,0,2.5-0.2v0.8c-1,0.1-1.8,0.1-2.3,0.1c-1.2,0.1-2.4-0.2-3.4-0.9c-0.6-0.4-1.1-0.9-1.5-1.6C0.3,91.9,0,90.7,0,89.4l0,0
			v-1.1l0,0c0-1.2,0.3-2.5,0.8-3.6c0.4-0.6,0.9-1.1,1.5-1.6c1-0.6,2.2-0.9,3.4-0.8c0.5,0,1.3,0,2.3,0.1v0.8
			c-1.1-0.1-1.9-0.2-2.5-0.2c-0.9-0.1-1.8,0.2-2.6,0.7C2.4,84.2,2,84.6,1.6,85.2z"/>
		<path class="st0" d="M19,95.2h-1c-1.7-1.9-3.5-3.7-5.3-5.3c-0.3,0-0.8,0-1.3-0.1v5.5h-0.8V82.5c0.9-0.1,1.8-0.2,2.7-0.2
			c1.3-0.1,2.6,0.3,3.6,1.2c0.6,0.7,0.9,1.6,0.9,2.6l0,0l0,0c0,1-0.4,1.9-1.1,2.6c-0.8,0.6-1.8,1-2.8,1C15.6,91.5,17.3,93.3,19,95.2
			z M11.4,89l1.1,0.1c0.1,0,0.1,0,0.2,0c1,0.1,2-0.1,2.9-0.5c0.9-0.5,1.4-1.4,1.3-2.4c0.1-0.7-0.2-1.5-0.7-2c-0.9-0.7-2-1.1-3.2-1
			c-0.5,0-1.1,0-1.6,0.1L11.4,89z"/>
		<path class="st0" d="M21.9,87.9h5.6v0.8h-5.6v5.8h5.6v0.8h-6.4V82.5h6.4v0.8h-5.6V87.9z"/>
		<path class="st0" d="M36.1,90.7h-5l-1.6,4.5h-0.9l4.5-12.8H34l4.6,12.8h-0.8L36.1,90.7z M35.8,89.9l-2.3-6.2l-2.2,6.2H35.8z"/>
		<path class="st0" d="M47.1,83.3h-3.3v12H43v-12h-3.3v-0.8h7.5V83.3z"/>
		<path class="st0" d="M50.4,82.5v12.8h-0.8V82.5H50.4z"/>
		<path class="st0" d="M52.9,82.5h0.8l4.2,11.6L62,82.5h0.8l-4.5,12.8h-0.8L52.9,82.5z"/>
		<path class="st0" d="M66.1,82.5v12.8h-0.8V82.5H66.1z"/>
		<path class="st0" d="M75.9,83.3h-3.3v12h-0.8v-12h-3.3v-0.8h7.4V83.3z"/>
		<path class="st0" d="M82.1,89.1v6.2h-0.8V89l-4.1-6.6h1l3.6,5.7l3.6-5.7h0.9L82.1,89.1L82.1,89.1z"/>
		<path class="st0" d="M49.7,53.9c-0.1-1.3-1.2-2.3-2.5-2.3H34.7c-1.3-0.1-2.4,1-2.5,2.3l0,0c0.1,1.3,1.2,2.3,2.5,2.3h12.5
			C48.5,56.3,49.6,55.2,49.7,53.9z"/>
		<path class="st0" d="M49.7,59.3c0-1.3-1.1-2.3-2.4-2.3c0,0,0,0,0,0H34.7c-1.3-0.1-2.4,1-2.5,2.3l0,0c0.1,1.3,1.2,2.3,2.5,2.3h12.5
			C48.5,61.6,49.6,60.6,49.7,59.3L49.7,59.3z"/>
		<path class="st0" d="M45.8,64.7c0,1.3-1.1,2.4-2.4,2.4H38c-1.3,0-2.4-1.1-2.4-2.4l0,0c0-1.3,1.1-2.4,2.4-2.4h5.4
			C44.7,62.3,45.8,63.4,45.8,64.7z"/>
		<path class="st0" d="M62.4,20.4C62.4,9.3,52.9,0.2,41.1,0h-0.3C29,0.2,19.5,9.3,19.5,20.4c0,2.7,0.6,5.4,1.7,7.9l0,0l0,0
			c0.7,1.7,1.7,3.2,2.9,4.6c8.6,10,7.4,11.9,10.1,17.4h4.2l-6.8-23c-0.1-0.3,0-0.6,0.2-0.8c0.2-0.2,0.5-0.3,0.8-0.2l4.2,1.4l3.6-5.8
			c0.2-0.2,0.4-0.4,0.7-0.4c0.3,0,0.6,0.2,0.7,0.4l3.1,5.9l4.6-1.6c0.3-0.1,0.6,0,0.8,0.2c0.2,0.2,0.3,0.5,0.2,0.8L44,50.4h3.8
			c2.6-5.5,1.5-7.4,10.1-17.4c1.2-1.4,2.1-3,2.9-4.6l0,0l0,0C61.8,25.8,62.4,23.2,62.4,20.4z"/>
		<path class="st0" d="M44.9,29.6c-0.4,0.1-0.8,0-1-0.4L41.1,24l-3.2,5.1c-0.2,0.3-0.6,0.5-1,0.4l-3.3-1.1l6.4,22h2.3l6.5-22
			L44.9,29.6z"/>
	</g>
</g>
</svg>
