<?xml version="1.0" encoding="utf-8"?>
<!-- Generator: Adobe Illustrator 23.0.0, SVG Export Plug-In . SVG Version: 6.00 Build 0)  -->
<svg version="1.1" id="Capa_1" xmlns="http://www.w3.org/2000/svg" xmlns:xlink="http://www.w3.org/1999/xlink" x="0px" y="0px"
	 viewBox="0 0 105.3 104.2" style="enable-background:new 0 0 105.3 104.2;" xml:space="preserve">
<style type="text/css">
	.st0{fill:#FFFFFF;}
</style>
<title>deporte</title>
<g>
	<g id="Ñëîé_1">
		<path class="st0" d="M21.1,76.2C9.5,76.2,0,66.8,0,55.1S9.5,34,21.1,34s21.1,9.5,21.1,21.1c0,0,0,0,0,0
			C42.2,66.8,32.8,76.2,21.1,76.2z M21.1,38.2c-9.3,0-16.8,7.6-16.8,16.9c0,9.3,7.6,16.8,16.9,16.8c9.3,0,16.8-7.5,16.8-16.8
			C38,45.8,30.4,38.3,21.1,38.2L21.1,38.2z"/>
		<path class="st0" d="M26.7,55.1c0,3.2-2.6,5.8-5.8,5.8s-5.8-2.6-5.8-5.8c0-3.2,2.6-5.8,5.8-5.8c0,0,0,0,0.1,0
			C24.2,49.4,26.7,51.9,26.7,55.1z"/>
		<path class="st0" d="M89.9,55.1c0,3.2-2.6,5.8-5.8,5.8s-5.8-2.6-5.8-5.8c0-3.2,2.6-5.8,5.8-5.8l0,0C87.3,49.3,89.9,51.9,89.9,55.1
			z"/>
		<path class="st0" d="M84.1,34C82,34,80,34.3,78,34.9l-6.5-15.6l-3.2-10c4.1,0.1,9.3-1.1,11.4-6.4c0.4-1.1-0.1-2.4-1.2-2.8
			s-2.4,0.1-2.8,1.2c-2.1,5.3-9.6,3.4-9.9,3.3c-1.2-0.3-2.3,0.4-2.6,1.6c-0.1,0.4-0.1,0.8,0,1.2l3.4,10.5L40.6,18l-2.4-5.1l-3.9,1.8
			l2.9,6.2L19.1,54.1c-0.6,1-0.2,2.3,0.8,2.9c0.3,0.2,0.7,0.3,1.1,0.3h30.6c0.3,0,0.7-0.1,1-0.3c-1.6-0.7-2.6-2.3-2.8-4H24.6
			l15-27.3l11.3,23.8c1.5-1.9,4.1-2.4,6.2-1.2L68.4,23L74,36.5c-10.3,5.6-14.1,18.4-8.5,28.6s18.4,14.1,28.6,8.5s14.1-18.4,8.5-28.6
			C99,38.3,91.9,34,84.1,34z M53.6,45.4l-11-23.1L64,22.2L53.6,45.4z M84.1,72c-9.3,0.1-16.9-7.4-16.9-16.7c0-6.1,3.2-11.7,8.5-14.7
			l6.4,15.4l3.9-1.7l-6.4-15.4c9-2.4,18.2,3,20.6,12s-3,18.2-12,20.6C86.9,71.8,85.5,72,84.1,72z"/>
		<path class="st0" d="M54.7,58c-3,0-5.5-2.5-5.5-5.5s2.5-5.5,5.5-5.5c3,0,5.5,2.5,5.5,5.5c0,0,0,0,0,0C60.2,55.6,57.7,58,54.7,58z
			 M54.7,48.2c-2.4,0-4.4,2-4.4,4.4c0,2.4,2,4.4,4.4,4.4c2.4,0,4.4-2,4.4-4.4c0,0,0,0,0,0C59,50.1,57.1,48.2,54.7,48.2z"/>
		<path class="st0" d="M30.6,13.8c-5.4,0,6.9,0.8,12.5-2.8L30.6,13.8z"/>
		<path class="st0" d="M30.9,16c-0.4,0-0.9,0-1.3,0h-0.1c-0.5,0-1.1-0.2-1.5-0.4c-0.7-0.6-1-1.5-0.7-2.4c0.5-1.5,1.8-1.5,3.4-1.4
			c0.1,0,0.2,0,0.3,0c2.7-0.1,8-0.6,11-2.5c1-0.7,2.3-0.4,3,0.5c0.7,1,0.4,2.3-0.5,3c-0.1,0-0.1,0.1-0.2,0.1
			C41.1,14.9,34.7,16,30.9,16z"/>
		<path class="st0" d="M56.3,60.9C56.3,60.9,56.3,60.9,56.3,60.9l-0.6-8.4c0-0.6-0.4-1-1-1c-0.1,0-0.1,0-0.1,0c-0.6,0-1,0.5-1,1.1
			c0,0,0,0,0,0l0.6,8.3h-2.3v2.6h6.7v-2.6H56.3z"/>
		<path class="st0" d="M26.3,104.2c-0.3,0-0.6,0-0.9-0.1c-0.8-0.1-1.6-0.5-2.2-0.9v-0.9c0.8,0.5,1.6,0.9,2.5,1.1
			c0.3,0,0.5,0.1,0.8,0.1c1.3,0.1,2.4-0.8,2.5-2.1c0-0.1,0-0.2,0-0.3c-0.1-0.7-0.4-1.3-0.9-1.7c-0.6-0.5-1.2-1-1.9-1.5
			c-1.2-0.9-1.9-1.4-2-1.5c-0.6-0.5-1-1.2-1-2c0-0.2,0-0.4,0.1-0.6c0.1-0.8,0.6-1.6,1.3-2.1c0.6-0.4,1.2-0.5,1.9-0.5
			c0.3,0,0.7,0,1,0.1c0.7,0.1,1.3,0.4,1.8,0.8v0.8c-0.5-0.5-1.2-0.9-1.9-1c-0.3-0.1-0.6-0.1-0.8-0.1c-0.5,0-0.9,0.1-1.3,0.4
			c-0.6,0.4-0.9,1-1,1.7c0,0.2-0.1,0.3-0.1,0.5c0,0.4,0.2,0.8,0.5,1.1c0.6,0.6,1.2,1.1,1.8,1.5c1,0.7,1.9,1.4,2.8,2.3
			c0.5,0.4,0.7,1,0.7,1.7c0,0.3,0,0.5-0.1,0.8c-0.1,0.8-0.5,1.5-1.2,1.9C28,104,27.2,104.3,26.3,104.2z"/>
		<path class="st0" d="M40.5,95.4c0,0.2,0,0.3,0,0.4c-0.1,1.2-0.7,2.2-1.7,2.9c-0.9,0.7-1.9,1-3,1c-0.5,0-1.3,0-2.3-0.1v4.6h-0.8
			V91.3c1.7-0.1,2.8-0.2,3.1-0.2c1.1-0.1,2.2,0.2,3.1,0.9c0.4,0.3,0.7,0.6,1,1c0.3,0.5,0.5,1.1,0.5,1.7c0,0.1,0,0.2,0,0.3L40.5,95.4
			z M39.7,94.9c0-0.9-0.4-1.7-1.1-2.3c-0.7-0.6-1.6-0.9-2.6-0.8c-0.8,0-1.7,0.1-2.5,0.2v3.7c0,0.1,0,0.3,0,0.4v2.6
			c1.4,0.1,2.2,0.2,2.5,0.2c1.8,0,3.3-1.3,3.6-3c0-0.2,0-0.3,0-0.4C39.7,95.3,39.7,95.1,39.7,94.9z"/>
		<path class="st0" d="M51.9,93c2.1,2.7,2.1,6.5,0,9.3c-1,1.2-2.5,1.9-4.1,1.9c-1.5,0-3-0.7-3.9-1.9c-2-2.8-2-6.5,0-9.3
			c0.9-1.2,2.4-2,3.9-1.9C49.4,91.1,50.9,91.8,51.9,93z M51.3,101.8c1.9-2.4,1.9-5.8,0-8.2c-0.8-1.1-2.1-1.7-3.5-1.7
			c-1.3,0-2.6,0.6-3.4,1.7c-1.6,2.5-1.6,5.7,0,8.2c0.8,1.1,2,1.7,3.4,1.7C49.2,103.5,50.5,102.9,51.3,101.8z"/>
		<path class="st0" d="M64.5,104h-1.1c-1.7-1.9-3.5-3.7-5.3-5.3c-0.3,0-0.8,0-1.3-0.1v5.5h-0.8V91.3c0.9-0.1,1.8-0.2,2.7-0.2
			c1.3-0.1,2.6,0.4,3.6,1.2c0.6,0.7,0.9,1.6,0.8,2.6l0,0l0,0c0,1-0.4,1.9-1.1,2.7c-0.8,0.6-1.8,1-2.8,1
			C61.1,100.3,62.8,102.1,64.5,104z M56.9,97.8l1.1,0.1c0.1,0,0.1,0,0.2,0c1,0.1,2-0.1,2.9-0.5c0.9-0.5,1.4-1.4,1.3-2.4
			c0.1-0.7-0.2-1.5-0.7-2c-0.9-0.7-2-1.1-3.2-1c-0.5,0-1.1,0-1.6,0.1L56.9,97.8z"/>
		<path class="st0" d="M73.5,92.1h-3.3v12h-0.8v-12h-3.3v-0.8h7.5V92.1z"/>
		<path class="st0" d="M79.7,97.9v6.2h-0.8v-6.2l-4.1-6.6h0.9l3.6,5.7l3.6-5.7h1l-4.1,6.5L79.7,97.9z"/>
	</g>
</g>
</svg>
