<?xml version="1.0" encoding="utf-8"?>
<!-- Generator: Adobe Illustrator 23.0.0, SVG Export Plug-In . SVG Version: 6.00 Build 0)  -->
<svg version="1.1" id="Capa_1" xmlns="http://www.w3.org/2000/svg" xmlns:xlink="http://www.w3.org/1999/xlink" x="0px" y="0px"
	 viewBox="0 0 80.1 111.1" style="enable-background:new 0 0 80.1 111.1;" xml:space="preserve">
<style type="text/css">
	.st0{fill:#FFFFFF;}
</style>
<title>energetico</title>
<g>
	<g id="Ñëîé_1">
		<polygon class="st0" points="45,35.9 54.6,0 53.1,0 24.7,44.9 40.3,44.9 28.8,83.9 30.3,83.9 60.5,35.9 		"/>
		<path class="st0" d="M0.8,103.5h5.6v0.8H0.8v5.8h5.6v0.8H0V98.1h6.4v0.8H0.8V103.5z"/>
		<path class="st0" d="M17.5,98.1v12.8h-0.8l-7-11.3v11.3H9V98.1h0.8l7,11.3V98.1H17.5z"/>
		<path class="st0" d="M21.3,103.5h5.6v0.8h-5.6v5.8h5.6v0.8h-6.4V98.1h6.4v0.8h-5.6V103.5z"/>
		<path class="st0" d="M37.9,110.8h-1.1c-1.7-1.9-3.5-3.7-5.3-5.3c-0.3,0-0.8,0-1.3-0.1v5.5h-0.8V98.1c0.9-0.1,1.8-0.2,2.7-0.2
			c1.3-0.1,2.6,0.4,3.6,1.2c0.6,0.7,0.9,1.6,0.8,2.6l0,0l0,0c0,1-0.4,1.9-1.1,2.6c-0.8,0.6-1.8,1-2.8,1
			C34.4,107.1,36.2,108.9,37.9,110.8z M30.3,104.6l1.1,0.1h0.2c1,0.1,2-0.1,2.9-0.5c0.9-0.5,1.4-1.4,1.3-2.4c0-0.7-0.2-1.5-0.7-2
			c-0.9-0.7-2-1.1-3.2-1c-0.5,0-1.1,0-1.6,0.1V104.6z"/>
		<path class="st0" d="M48.5,105.2v5.7L48,111c-0.7,0-1.5,0.1-2.5,0.1c-1.2,0.1-2.4-0.2-3.5-0.8c-0.6-0.4-1.1-0.9-1.5-1.6
			c-0.6-1.1-0.8-2.3-0.8-3.6l0,0V104l0,0c0-1.2,0.3-2.5,0.8-3.6c0.4-0.6,0.9-1.2,1.5-1.6c1-0.6,2.2-0.9,3.5-0.8c0.5,0,1.3,0,2.3,0.1
			v0.8c-1.1-0.1-2-0.1-2.5-0.1c-0.9-0.1-1.9,0.2-2.6,0.7c-0.5,0.4-1,0.8-1.3,1.4c-0.5,1-0.8,2.2-0.8,3.3c0,0.1,0,0.3,0,0.4
			c0,0.1,0,0.3,0,0.4c0,1.2,0.3,2.3,0.8,3.3c0.4,0.5,0.8,1,1.3,1.3c0.8,0.5,1.7,0.7,2.6,0.7c0.8,0,1.6,0,2.5-0.1v-5h-3.2v-0.8h4.1
			V105.2z"/>
		<path class="st0" d="M51.8,103.5h5.6v0.8h-5.6v5.8h5.6v0.8H51V98.1h6.4v0.8h-5.6V103.5z"/>
		<path class="st0" d="M66.4,98.9h-3.3v12h-0.8v-12h-3.3v-0.8h7.5V98.9z"/>
		<path class="st0" d="M69.7,98.1v12.8h-0.8V98.1H69.7z"/>
		<path class="st0" d="M73.8,100.8c-0.5,1-0.8,2.2-0.8,3.3v0.8c0,1.2,0.3,2.3,0.8,3.3c0.3,0.5,0.8,1,1.3,1.4
			c0.8,0.5,1.7,0.7,2.6,0.7c0.6,0,1.4,0,2.5-0.2v0.8c-1,0.1-1.8,0.2-2.3,0.2c-1.2,0.1-2.4-0.2-3.4-0.9c-0.6-0.4-1.1-0.9-1.4-1.6
			c-0.5-1.1-0.8-2.4-0.8-3.6l0,0V104l0,0c0-1.2,0.3-2.5,0.8-3.6c0.4-0.6,0.9-1.2,1.5-1.6c1-0.6,2.2-0.9,3.3-0.8c0.5,0,1.3,0,2.3,0.1
			v0.8c-1.1-0.1-1.9-0.2-2.5-0.2c-0.9-0.1-1.8,0.2-2.6,0.7C74.5,99.8,74.1,100.3,73.8,100.8z"/>
	</g>
</g>
</svg>
