<?xml version="1.0" encoding="utf-8"?>
<!-- Generator: Adobe Illustrator 23.0.0, SVG Export Plug-In . SVG Version: 6.00 Build 0)  -->
<svg version="1.1" id="Capa_1" xmlns="http://www.w3.org/2000/svg" xmlns:xlink="http://www.w3.org/1999/xlink" x="0px" y="0px"
	 viewBox="0 0 84.1 97.4" style="enable-background:new 0 0 84.1 97.4;" xml:space="preserve">
<style type="text/css">
	.st0{fill:#FFFFFF;}
</style>
<title>orden</title>
<g>
	<g id="Ñëîé_1">
		<path class="st0" d="M73.7,39.9l-2.4-4.4L27.5,59.3c-7.3,4-16.5,1.3-20.5-6c0,0,0,0,0,0L6.9,53c-4-7.3-1.3-16.4,6-20.4L59.2,7.3
			c7.3-4,15.6-2.7,18.6,2.8l0.2,0.3c3,5.5-0.5,13.2-7.8,17.1L28.7,50.2c-4.2,2.3-7.1,1.3-9.7-3.4l-0.1-0.2c-1.2-2.2-1.7-4-1.4-5.5
			c0.3-1.8,1.5-3.3,3.8-4.5l39-21.3l-2.4-4.4l-39,21.3c-6.6,3.6-8.3,9.8-4.4,16.8l0.1,0.2c1.4,2.9,3.7,5.2,6.7,6.5
			c3,1.2,6.3,0.8,9.9-1.1L72.6,32c9.7-5.3,14.1-16,9.8-24l-0.2-0.3C80,3.8,76,1,71.5,0.3c-5-0.8-10.2,0.1-14.7,2.6L10.5,28.1
			c-9.7,5.3-13.3,17.5-8,27.2l0,0l0.2,0.3c5.3,9.7,17.5,13.3,27.2,8L73.7,39.9z"/>
		<path class="st0" d="M18.7,86.2c2.1,2.7,2.1,6.5,0,9.3c-1,1.2-2.5,1.9-4.1,1.9c-1.5,0-3-0.7-3.9-1.9c-2-2.8-2-6.5,0-9.3
			c0.9-1.2,2.4-2,3.9-1.9C16.2,84.3,17.7,85,18.7,86.2z M18.1,95c1.9-2.4,1.9-5.8,0-8.2c-0.8-1.1-2.1-1.7-3.5-1.7
			c-1.3,0-2.6,0.6-3.4,1.7c-1.6,2.5-1.6,5.7,0,8.2c0.8,1.1,2,1.7,3.4,1.7C15.9,96.7,17.2,96.1,18.1,95z"/>
		<path class="st0" d="M31.3,97.2h-1.1c-1.7-1.9-3.5-3.7-5.3-5.3c-0.3,0-0.8,0-1.3-0.1v5.5h-0.8V84.5c0.9-0.1,1.8-0.2,2.7-0.2
			c1.3-0.1,2.6,0.4,3.6,1.2c0.6,0.7,0.9,1.6,0.8,2.6l0,0l0,0c0,1-0.4,1.9-1.1,2.7c-0.8,0.6-1.8,1-2.8,1
			C27.9,93.5,29.6,95.3,31.3,97.2z M23.7,91l1.1,0.1c0.1,0,0.2-0.1,0.2-0.1c1,0.1,2-0.1,2.9-0.5c0.9-0.5,1.4-1.4,1.3-2.4
			c0.1-0.7-0.2-1.5-0.7-2c-0.9-0.7-2-1.1-3.2-1c-0.5,0-1.1,0-1.6,0.1L23.7,91z"/>
		<path class="st0" d="M42,90.8c0,0.1,0,0.3,0,0.6c0,1.2-0.3,2.5-0.9,3.6c-0.4,0.6-0.9,1.2-1.6,1.6c-1.1,0.6-2.3,0.9-3.6,0.8
			c-0.7,0-1.5,0-2.5-0.1l0,0V84.4h0.2c0.2,0,0.6,0,1.2-0.1l1.1-0.1c1.2-0.1,2.5,0.2,3.6,0.8c0.6,0.4,1.2,0.9,1.6,1.6
			c0.6,1.1,0.9,2.3,0.9,3.6C42,90.5,42,90.7,42,90.8z M41.2,90.8v-0.4c0-1.2-0.3-2.3-0.8-3.3c-0.4-0.5-0.8-1-1.4-1.3
			c-0.8-0.5-1.8-0.7-2.8-0.7c-0.4,0-1.1,0-1.9,0.1v11.3c0.9,0.1,1.5,0.1,1.9,0.1c1,0,2-0.2,2.8-0.7c0.5-0.3,1-0.8,1.4-1.3
			c0.5-1,0.8-2.2,0.9-3.3V90.8z"/>
		<path class="st0" d="M44.9,89.9h5.6v0.8h-5.6v5.8h5.6v0.8h-6.4V84.4h6.4v0.8h-5.6V89.9z"/>
		<path class="st0" d="M61.5,97.2h-1.1c-1.7-1.9-3.5-3.7-5.3-5.3c-0.3,0-0.8,0-1.3-0.1v5.5h-0.8V84.5c0.9-0.1,1.8-0.2,2.7-0.2
			c1.3-0.1,2.6,0.4,3.6,1.2c0.6,0.7,0.9,1.6,0.8,2.6l0,0l0,0c0,1-0.4,1.9-1.1,2.7c-0.8,0.6-1.8,1-2.8,1
			C58.1,93.5,59.8,95.3,61.5,97.2z M53.9,91H55c0.1,0,0.2,0,0.2,0c1,0.1,2-0.1,2.9-0.5c0.9-0.5,1.4-1.4,1.3-2.4c0-0.7-0.2-1.5-0.7-2
			c-0.9-0.7-2-1.1-3.2-1c-0.5,0-1.1,0-1.6,0.1L53.9,91z"/>
		<path class="st0" d="M70.4,96.4v0.8H64V84.4h0.8v12L70.4,96.4z"/>
		<path class="st0" d="M76.4,91v6.2h-0.8V91l-4.1-6.6h0.9l3.6,5.7l3.6-5.7h0.9l-4.1,6.5L76.4,91z"/>
	</g>
</g>
</svg>
