<?xml version="1.0" encoding="utf-8"?>
<!-- Generator: Adobe Illustrator 23.0.0, SVG Export Plug-In . SVG Version: 6.00 Build 0)  -->
<svg version="1.1" id="Capa_1" xmlns="http://www.w3.org/2000/svg" xmlns:xlink="http://www.w3.org/1999/xlink" x="0px" y="0px"
	 viewBox="0 0 103.8 94.7" style="enable-background:new 0 0 103.8 94.7;" xml:space="preserve">
<style type="text/css">
	.st0{fill:#FFFFFF;}
</style>
<title>puntual</title>
<g>
	<g id="Ñëîé_1">
		<path class="st0" d="M63.7,30.4L63.7,30.4L53,36.2c-1,0.5-2.3,0.2-2.9-0.9L39.3,15.1c-0.6-1-0.2-2.3,0.9-2.9
			c1-0.6,2.3-0.2,2.9,0.9l9.8,18.3l8.9-4.7c1-0.6,2.3-0.2,2.9,0.9S64.8,29.9,63.7,30.4L63.7,30.4z"/>
		<path class="st0" d="M84.5,32.8C84.5,14.8,70,0.1,52,0h-0.3c-18.1-0.3-33,14.1-33.3,32.2c-0.3,18.1,14.1,33,32.2,33.3
			c0.4,0,0.8,0,1.1,0H52C70,65.4,84.5,50.8,84.5,32.8z M53.8,60.7v-6.3c-0.1-1-1-1.8-2-1.7c-0.9,0.1-1.7,0.8-1.7,1.7v6.3
			c-14.1-0.8-25.3-12-26.3-26.1h6.7c1,0,1.9-0.8,1.9-1.9s-0.8-1.9-1.9-1.9c0,0,0,0,0,0h-6.7C24.8,16.8,36,5.7,50.1,4.8v6.3
			c0.1,1,1,1.8,2,1.7c0.9-0.1,1.7-0.8,1.7-1.7V4.8c13.9,1,25,12.1,25.9,26.1h-6.4c-1,0-1.9,0.8-1.9,1.9c0,1,0.8,1.9,1.9,1.9h6.4
			C78.8,48.6,67.7,59.7,53.8,60.7z"/>
		<path class="st0" d="M7.8,85.7c0,0.2,0,0.3,0,0.3c-0.1,1.2-0.7,2.2-1.7,2.9c-0.9,0.7-1.9,1-3,1c-0.6,0-1.3,0-2.4-0.1v4.6H0V81.6
			c1.7-0.1,2.8-0.2,3.1-0.2c1.1-0.1,2.3,0.2,3.2,0.9c0.4,0.3,0.7,0.7,1,1.1c0.3,0.5,0.5,1.1,0.5,1.7c0,0.1,0,0.2,0,0.3L7.8,85.7z
			 M7,85.3c0-0.9-0.4-1.7-1.1-2.3c-0.7-0.6-1.6-0.9-2.6-0.8c-0.8,0-1.7,0.1-2.5,0.2V86c0,0.1,0,0.3,0,0.4v2.7
			c1.4,0.1,2.2,0.2,2.5,0.2c0.9,0,1.7-0.3,2.4-0.9c0.7-0.5,1.1-1.3,1.2-2.2c0-0.1,0-0.3,0-0.4C7,85.6,7,85.4,7,85.3z"/>
		<path class="st0" d="M18.5,90.2c0,3-1.4,4.5-4.1,4.5s-4.1-1.5-4.1-4.5v-8.5h0.9v8.4c-0.1,0.9,0.2,1.8,0.6,2.6
			c0.6,0.8,1.6,1.2,2.6,1.1c1,0.1,2-0.3,2.6-1.1c0.5-0.8,0.7-1.7,0.6-2.6v-8.4h0.9L18.5,90.2z"/>
		<path class="st0" d="M30.4,81.6v12.8h-0.8l-7-11.3v11.3h-0.8V81.6h0.8l7,11.3V81.6H30.4z"/>
		<path class="st0" d="M34.4,84.3c-0.5,1-0.8,2.2-0.8,3.3v0.8c0,1.2,0.3,2.3,0.8,3.3c0.3,0.5,0.8,1,1.3,1.4c0.8,0.5,1.7,0.8,2.6,0.7
			c0.6,0,1.4-0.1,2.5-0.2v0.8c-1,0.1-1.8,0.1-2.3,0.1c-1.2,0.1-2.4-0.2-3.4-0.9c-0.6-0.4-1.1-0.9-1.5-1.6c-0.6-1.1-0.8-2.4-0.8-3.6
			l0,0v-1.1l0,0c0-1.2,0.3-2.5,0.8-3.6c0.4-0.6,0.9-1.2,1.5-1.6c1-0.6,2.2-0.9,3.4-0.8c0.5,0,1.3,0,2.3,0.1v0.8
			c-1.1-0.1-1.9-0.2-2.5-0.2c-0.9-0.1-1.8,0.2-2.6,0.7C35.2,83.3,34.8,83.8,34.4,84.3z"/>
		<path class="st0" d="M49.9,82.4h-3.3v12h-0.8v-12h-3.3v-0.8h7.5V82.4z"/>
		<path class="st0" d="M60.3,90.2c0,3-1.4,4.5-4.1,4.5s-4.1-1.5-4.1-4.5v-8.5H53v8.4c-0.1,0.9,0.2,1.8,0.6,2.6
			c0.6,0.8,1.6,1.2,2.6,1.1c1,0.1,2-0.3,2.6-1.1c0.4-0.8,0.6-1.7,0.6-2.6v-8.4h0.9L60.3,90.2z"/>
		<path class="st0" d="M69.6,89.9h-5L63,94.4h-0.8l4.5-12.8h0.8l4.6,12.8h-0.8L69.6,89.9z M69.3,89.1l-2.3-6.2l-2.2,6.2H69.3z"/>
		<path class="st0" d="M80.5,93.6v0.8H74V81.6h0.8v12L80.5,93.6z"/>
		<path class="st0" d="M83.6,81.6v12.8h-0.8V81.6H83.6z"/>
		<path class="st0" d="M93.4,82.4h-3.3v12h-0.8v-12H86v-0.8h7.5L93.4,82.4z"/>
		<path class="st0" d="M99.7,88.2v6.2h-0.8v-6.2l-4.1-6.6h0.9l3.6,5.7l3.6-5.7h1l-4.1,6.5L99.7,88.2z"/>
	</g>
</g>
</svg>
