<svg xmlns="http://www.w3.org/2000/svg" xmlns:xlink="http://www.w3.org/1999/xlink" viewBox="0 0 125.1 124.27"><defs><style>.cls-1{isolation:isolate;}.cls-2{opacity:0.8;mix-blend-mode:darken;fill:url(#Áåçûìÿííûé_ãðàäèåíò_5);}.cls-3{fill:#fff;}</style><linearGradient id="Áåçûìÿííûé_ãðàäèåíò_5" x1="166.26" y1="63.3" x2="283.13" y2="48.52" gradientTransform="matrix(-1, 0.07, 0.07, 1, 278.95, -9.32)" gradientUnits="userSpaceOnUse"><stop offset="0.01" stop-color="#92c7e1"/><stop offset="0.07" stop-color="#8dcde7"/><stop offset="0.25" stop-color="#83d8f3"/><stop offset="0.43" stop-color="#80dcf7"/></linearGradient></defs><title>Recurso 5</title><g class="cls-1"><g id="Capa_2" data-name="Capa 2"><g id="Ñëîé_17_êîïèÿ2_" data-name="Ñëîé 17 (êîïèÿ2)"><path class="cls-2" d="M63.28,122.85c8.87-.24,34.78-1.57,38.7-1.84,4.84-.33,18.52-1,20.11-1.1,1,0,2.58-.08,2.85-.37s.14-1.59.08-2.33c-.18-2.33-2.41-35.53-3.7-54.5-1.09-16-2.84-41.13-3.53-54.25-.15-2.84-.17-4.14-.35-5.57-.15-1.22-.06-2.56-.47-2.8a7.74,7.74,0,0,0-2.55.11c-2.56.23-5.47.44-11.92.88-11.76.8-26.26,1.43-37.67,2-9.83.49-34,2.43-36.53,2.6-9,.63-20.91.88-25.84,1a9.93,9.93,0,0,0-2.37.19,5.51,5.51,0,0,0,0,2c.29,3.72.8,11.8,1.14,16.73.52,7.62.83,16.66,1.38,24.57C3.12,57.68,3.68,64.42,3.93,68c.5,7.34,1.44,18.24,2.1,25.4,1,10.54,2.68,29.06,4.51,30.17s12.55.57,23,.43C41,123.92,54,123.1,63.28,122.85Z"/><path class="cls-3" d="M29.72,44a2.36,2.36,0,0,1,.34,1.11,3,3,0,0,1-.32,1.4,5.4,5.4,0,0,1-1.75,2A17,17,0,0,1,22.8,50.9l-1,.3-.32.09a0,0,0,0,1,0,0h0l0,.19a.41.41,0,0,1-.15.37,1.77,1.77,0,0,1-1,.38,2.81,2.81,0,0,1-.87-.15,4.94,4.94,0,0,0-.84-.17h-.44c-1.3,0-2.11-.16-2.44-.57a1,1,0,0,1-.23-.62,2,2,0,0,1,.05-.47c.12-.53.59-.81,1.41-.85a8,8,0,0,1,.92,0h.15c-.36-2.11-.68-4-1-5.56,0-.11,0-.39-.06-.83-.06-1.38-.19-2.11-.39-2.2a6.19,6.19,0,0,0-1.15-.19,9.05,9.05,0,0,1-2-.37,1.32,1.32,0,0,1-1-1.15v-.09c0-.81.47-1.24,1.36-1.28a7.66,7.66,0,0,1,1.81.24l.72.14A1.72,1.72,0,0,1,16.85,37a1.46,1.46,0,0,1,1.06-.53H18a1,1,0,0,1,.77.28,1.53,1.53,0,0,1,.43,1.08v.09a3.29,3.29,0,0,1,0,.41c0,.07,0,.1,0,.12a1.54,1.54,0,0,0,.26.17,8.83,8.83,0,0,0,1.64.63,32.64,32.64,0,0,1,4.72,1.93l.68.32A7.19,7.19,0,0,1,29.72,44Zm-2.44,1.6v-.07c0-.9-1.18-1.82-3.41-2.78l-.62-.27a10,10,0,0,0-3.82-1.12l-.34,0a34.4,34.4,0,0,0,.46,3.54c.1.57.16,1,.2,1.22,0,.09,0,.26.05.51a4.77,4.77,0,0,0,.64,2.4A21.44,21.44,0,0,0,25,47.54l.22-.1C26.59,46.78,27.27,46.17,27.28,45.6Z"/><path class="cls-3" d="M39.83,49.05a2.37,2.37,0,0,1,.62,1.26A1.1,1.1,0,0,1,40,51a1.42,1.42,0,0,1-.85.33.86.86,0,0,1-.63-.2,4.18,4.18,0,0,1-1-1.79,4.88,4.88,0,0,0-.71-1.43c0,.08-.11.19-.2.34a15.11,15.11,0,0,1-1.29,2,3.78,3.78,0,0,1-1.89,1.33,2.3,2.3,0,0,1-.57.08,1.69,1.69,0,0,1-1.31-.44,2.08,2.08,0,0,1-.61-1.36q-.07-1.77,2-4.44c1.85-1.65,3.26-2.49,4.24-2.54h.08c.39,0,.72.34,1,1.08a13.41,13.41,0,0,1,.46,2c0,.31.08.51.1.58a3.89,3.89,0,0,1,.11.4,7.29,7.29,0,0,0,.49,1.52A4.36,4.36,0,0,0,39.83,49.05Zm-4.06-3.54a.14.14,0,0,0-.11,0c-.18,0-.41.18-.69.52a8.39,8.39,0,0,0-1.08,1.76,5.91,5.91,0,0,0-.55,1.54A3.53,3.53,0,0,0,35,47.72,4.42,4.42,0,0,0,35.77,45.51Z"/><path class="cls-3" d="M49.5,42.89a1,1,0,0,1,.16.47.8.8,0,0,1-.07.34c-.18.44-.7.75-1.56.95-.52.12-1.33.24-2.41.38l-.32,0v.32c0,.44,0,.78,0,1a1.72,1.72,0,0,0,0,.26c.08.57.15,1.28.21,2.14v.35c.06,1.19,0,1.83-.21,1.9,0,0-.15.06-.41.07a3.07,3.07,0,0,1-1,0,4.17,4.17,0,0,1-.78-2.79c0-.45,0-.93,0-1.47v-.29a1.33,1.33,0,0,0-.31-.94,1.38,1.38,0,0,0-1-.21h-.14l-.23,0a2.9,2.9,0,0,1-.8-.06,1.25,1.25,0,0,1-.81-.75v0a.62.62,0,0,1,.17-.49,2.19,2.19,0,0,1,1.6-.53h.73a1.58,1.58,0,0,0,.57-.13c-.1-.69-.16-1.36-.19-2,0-.51,0-1,0-1.53a5.4,5.4,0,0,1,.73-3.07,1.06,1.06,0,0,1,.78-.42h.08a.46.46,0,0,1,.33.13,3.17,3.17,0,0,1,.4,1.79c0,.57,0,1.27,0,2.1,0,.55,0,.9,0,1.07s0,.43,0,.73l0,.93c0,.09.16.12.48.11l.22,0a12.76,12.76,0,0,0,1.8-.34l.24-.07a4.6,4.6,0,0,1,1-.22A.76.76,0,0,1,49.5,42.89Z"/><path class="cls-3" d="M52.88,42.41a2.45,2.45,0,0,1,2,.85,3.9,3.9,0,0,1,.85,2.47,5.77,5.77,0,0,1-.8,3.33,3.23,3.23,0,0,1-2.68,1.72,3.09,3.09,0,0,1-.67,0,2.56,2.56,0,0,1-2-1.58,5.59,5.59,0,0,1-.5-2.17c0-.21,0-.43,0-.65a4.05,4.05,0,0,1,1-2.77,3.58,3.58,0,0,1,2.59-1.15Zm-1.35,3.22a2.5,2.5,0,0,0-.21,1.14v.11a2.43,2.43,0,0,0,.37,1.19.8.8,0,0,0,.68.43,1.32,1.32,0,0,0,.88-.62,2.52,2.52,0,0,0,.49-1.55,1,1,0,0,0,0-.25,2.41,2.41,0,0,0-.42-1.33.64.64,0,0,0-.57-.3,1.57,1.57,0,0,0-1.23,1.18Z"/><path class="cls-3" d="M59.11,44.73l.06.06c.25.05,1.51.44,3.78,1.15a4,4,0,0,1,1.74,1,1.28,1.28,0,0,1,.34.82,2,2,0,0,1-.19.89,2.51,2.51,0,0,1-1.26,1,9.57,9.57,0,0,1-2.19.67,8.85,8.85,0,0,1-1.36.17,5.56,5.56,0,0,1-.82,0c-.68-.07-1.1-.26-1.25-.59a2.35,2.35,0,0,1-.23-.86,1.41,1.41,0,0,1,.08-.55.6.6,0,0,1,.55-.45,1.38,1.38,0,0,1,.45.09,5.29,5.29,0,0,0,2,.4,2,2,0,0,0,1.44-.63c-.09,0-1.16-.26-3.21-.79-1.52-.4-2.31-1-2.34-1.74,0-.11,0-.22,0-.32a2.35,2.35,0,0,1,1.24-2,4.69,4.69,0,0,1,2.45-.88h.14a1.59,1.59,0,0,1,.83.19,1.17,1.17,0,0,1,.51.5.65.65,0,0,1,.06.26.62.62,0,0,1-.08.35,1.27,1.27,0,0,1-.74.47l-1.35.28c-.48.14-.72.3-.71.46A.17.17,0,0,0,59.11,44.73Z"/><path class="cls-3" d="M58.55,80.9a1.51,1.51,0,0,1,.07.38c0,.79-.52,1.89-1.69,3.3a14.93,14.93,0,0,1-3.73,3.25,10.5,10.5,0,0,1-5.14,1.62,7.5,7.5,0,0,1-3.7-.71,5.38,5.38,0,0,1-3-3.26,6.39,6.39,0,0,1-.24-1.41,7.9,7.9,0,0,1,.16-1.84,10.56,10.56,0,0,1,3.09-5.46,7.54,7.54,0,0,1,4.85-2.41h.22a2.19,2.19,0,0,1,.91.23,1.22,1.22,0,0,1,.62.67.66.66,0,0,1,.06.27c0,.52-.48,1-1.52,1.51l-.56.27a11.33,11.33,0,0,0-3.35,2.12,8.76,8.76,0,0,0-1.6,2.23,4.56,4.56,0,0,0-.54,2.2c0,.12,0,.24,0,.35a2.94,2.94,0,0,0,1.72,2.16,5.63,5.63,0,0,0,2.92.59,7.93,7.93,0,0,0,4.67-1.75s.13-.13.33-.34q4-4.17,5-4.21A.35.35,0,0,1,58.55,80.9Z"/><path class="cls-3" d="M64.27,86.4a7.51,7.51,0,0,1,.61,2.09c0,.54-.19.82-.66.84a1.37,1.37,0,0,1-.93-.32,4,4,0,0,1-1-2.2c-.09-.34-.15-.58-.2-.73A6.08,6.08,0,0,1,60.56,88a3.24,3.24,0,0,1-1.9,1,1.23,1.23,0,0,1-1.12-.55,3.62,3.62,0,0,1-.5-1.92,12.19,12.19,0,0,1,.36-3.19c.35-1.57.84-2.39,1.47-2.44h0a.66.66,0,0,1,.54.21,1.44,1.44,0,0,1,.22.84,12.85,12.85,0,0,1-.27,2.67,11.41,11.41,0,0,0-.23,1.77c0,.1,0,.16,0,.18a.21.21,0,0,0,.11,0,3.94,3.94,0,0,0,1.5-2,10.78,10.78,0,0,0,.42-2.16,7.16,7.16,0,0,1,.21-1.2.67.67,0,0,1,.6-.51c.54,0,.94.33,1.19,1.07a10.6,10.6,0,0,1,.38,2.17c.06.54.11.89.15,1.08A10,10,0,0,0,64.27,86.4Z"/><path class="cls-3" d="M72.63,80.07a.83.83,0,0,1,.43.63.37.37,0,0,1,0,.18,7.62,7.62,0,0,0-2.58,2.37A9,9,0,0,0,69,87c-.17,1-.46,1.55-.87,1.57a.92.92,0,0,1-.6-.26,5.33,5.33,0,0,1-1.36-2.72,15,15,0,0,1-.51-3.18,1.42,1.42,0,0,1,.44-.89.53.53,0,0,1,.31-.11.65.65,0,0,1,.37.09c.58.33.95,1.14,1.09,2.43a6.36,6.36,0,0,1,1.37-2.53,3.59,3.59,0,0,1,2.48-1.57h0A1.56,1.56,0,0,1,72.63,80.07Z"/><path class="cls-3" d="M74.52,78.08a1.25,1.25,0,0,1-.8-.25.66.66,0,0,1-.24-.48v0a1,1,0,0,1,.39-.77,1.37,1.37,0,0,1,.85-.32h.19a1.24,1.24,0,0,1,.8.18A.63.63,0,0,1,76,77a.89.89,0,0,1-.33.74,1.32,1.32,0,0,1-.93.39A.81.81,0,0,1,74.52,78.08Zm.61,1.73c.36,0,.54.13.56.44a24.67,24.67,0,0,1,.55,4.33c0,.18,0,.38,0,.58l.06,2.35c0,.12-.15.26-.46.43a1.61,1.61,0,0,1-.73.26.36.36,0,0,1-.24,0,2.34,2.34,0,0,1-.82-1.62c0-.14,0-.32,0-.51,0-.43,0-1,0-1.68q0-.42,0-.63c0-.51,0-1,0-1.58l0-.56a3.92,3.92,0,0,0-.06-.4A.71.71,0,0,1,74,81a1.28,1.28,0,0,1,.23-.78A1.1,1.1,0,0,1,75.13,79.81Z"/><path class="cls-3" d="M81.54,79.57a2.41,2.41,0,0,1,2,.85,3.94,3.94,0,0,1,.86,2.47,5.79,5.79,0,0,1-.8,3.33A3.23,3.23,0,0,1,81,87.94a3.82,3.82,0,0,1-.67,0,2.57,2.57,0,0,1-2-1.58,5.77,5.77,0,0,1-.5-2.17c0-.21,0-.43,0-.65a4.1,4.1,0,0,1,1-2.78,3.59,3.59,0,0,1,2.58-1.14ZM80.2,82.79A2.35,2.35,0,0,0,80,83.93V84a2.46,2.46,0,0,0,.37,1.18.77.77,0,0,0,.68.43,1.3,1.3,0,0,0,.89-.62,2.55,2.55,0,0,0,.49-1.54v-.25A2.59,2.59,0,0,0,82,81.91a.64.64,0,0,0-.57-.3,1.19,1.19,0,0,0-.81.42A1.25,1.25,0,0,0,80.2,82.79Z"/><path class="cls-3" d="M87.77,81.89l.07,0c.25.06,1.51.45,3.78,1.16a3.87,3.87,0,0,1,1.73,1,1.23,1.23,0,0,1,.34.82,1.87,1.87,0,0,1-.19.88,2.43,2.43,0,0,1-1.25,1,9.82,9.82,0,0,1-2.2.67,10.37,10.37,0,0,1-1.35.17,5.48,5.48,0,0,1-.82,0c-.69-.06-1.11-.25-1.25-.58a2.39,2.39,0,0,1-.24-.86,1.25,1.25,0,0,1,.09-.55.59.59,0,0,1,.54-.45,1,1,0,0,1,.46.09,5.22,5.22,0,0,0,2,.4A2,2,0,0,0,90.94,85c-.09,0-1.16-.26-3.2-.79-1.53-.4-2.31-1-2.35-1.74a1.82,1.82,0,0,1,0-.32,2.32,2.32,0,0,1,1.23-2A4.64,4.64,0,0,1,89,79.23h.14a1.56,1.56,0,0,1,.83.19,1.12,1.12,0,0,1,.51.5.68.68,0,0,1,.07.26.52.52,0,0,1-.09.34,1.2,1.2,0,0,1-.73.48l-1.35.28c-.49.14-.73.29-.72.46A.24.24,0,0,0,87.77,81.89Z"/><path class="cls-3" d="M98.32,78.8a2.38,2.38,0,0,1,2,.85,3.94,3.94,0,0,1,.86,2.47,5.76,5.76,0,0,1-.8,3.32,3.21,3.21,0,0,1-2.68,1.72,3.8,3.8,0,0,1-.67,0,2.56,2.56,0,0,1-2-1.58,5.42,5.42,0,0,1-.5-2.18c0-.21,0-.42,0-.64a4.1,4.1,0,0,1,1-2.78,3.55,3.55,0,0,1,2.58-1.14ZM97,82a2.31,2.31,0,0,0-.21,1.13v.11a2.39,2.39,0,0,0,.36,1.19.79.79,0,0,0,.68.43,1.3,1.3,0,0,0,.89-.62,2.58,2.58,0,0,0,.49-1.55v-.24a2.62,2.62,0,0,0-.42-1.34.65.65,0,0,0-.57-.3,1.23,1.23,0,0,0-.81.43A1.25,1.25,0,0,0,97,82Z"/><path class="cls-3" d="M104.55,81.12l.07,0c.24.06,1.5.44,3.78,1.16a3.87,3.87,0,0,1,1.73.94,1.26,1.26,0,0,1,.34.83,1.87,1.87,0,0,1-.19.88A2.43,2.43,0,0,1,109,86a9.81,9.81,0,0,1-2.2.68,10.37,10.37,0,0,1-1.35.17,5.48,5.48,0,0,1-.82,0c-.69-.06-1.11-.26-1.25-.58a2.44,2.44,0,0,1-.24-.86,1.25,1.25,0,0,1,.09-.55.59.59,0,0,1,.54-.45,1,1,0,0,1,.46.09,5.41,5.41,0,0,0,2,.4,2,2,0,0,0,1.43-.63c-.09,0-1.16-.26-3.2-.8-1.53-.39-2.31-1-2.35-1.73a1.82,1.82,0,0,1,0-.32,2.33,2.33,0,0,1,1.23-2,4.81,4.81,0,0,1,2.45-.88H106a1.48,1.48,0,0,1,.83.19,1.08,1.08,0,0,1,.51.5.68.68,0,0,1,.07.26.6.6,0,0,1-.09.34,1.16,1.16,0,0,1-.73.47l-1.35.28c-.49.15-.73.3-.72.47A.24.24,0,0,0,104.55,81.12Z"/></g></g></g></svg>