<?xml version="1.0" encoding="utf-8"?>
<!-- Generator: Adobe Illustrator 23.0.0, SVG Export Plug-In . SVG Version: 6.00 Build 0)  -->
<svg version="1.1" id="Capa_1" xmlns="http://www.w3.org/2000/svg" xmlns:xlink="http://www.w3.org/1999/xlink" x="0px" y="0px"
	 viewBox="0 0 94 98.2" style="enable-background:new 0 0 94 98.2;" xml:space="preserve">
<style type="text/css">
	.st0{fill:#FFFFFF;}
</style>
<title>social</title>
<g>
	<g id="Ñëîé_1">
		<path class="st0" d="M61.3,0H32.6C14.6,0,0,14.6,0,32.6c0,8,2.9,15.6,8.2,21.6l-0.1-0.1L0,72.5l21.5-9.2l-0.1-0.1
			c3.6,1.3,7.4,2,11.2,2h28.7c18-0.4,32.3-15.4,31.8-33.4C92.7,14.4,78.7,0.4,61.3,0z M25.5,39.7c-4,0-7.2-3.3-7.2-7.3
			s3.3-7.2,7.3-7.2c4,0,7.2,3.2,7.2,7.2C32.8,36.5,29.5,39.7,25.5,39.7z M49.3,39.7c-4,0-7.3-3.2-7.3-7.3s3.2-7.3,7.3-7.3
			s7.3,3.2,7.3,7.3S53.3,39.7,49.3,39.7z M72.8,39.7c-4,0-7.3-3.2-7.3-7.3s3.2-7.3,7.3-7.3s7.3,3.2,7.3,7.3
			C80,36.5,76.8,39.7,72.8,39.7z"/>
		<path class="st0" d="M4.6,98.1c-0.3,0-0.6,0-0.9-0.1c-0.8-0.1-1.6-0.5-2.2-0.9v-0.9c0.8,0.5,1.6,0.9,2.5,1.1
			c0.3,0.1,0.5,0.1,0.8,0.1c1.3,0.1,2.4-0.8,2.5-2.1c0-0.1,0-0.2,0-0.3c-0.1-0.7-0.4-1.3-0.9-1.7c-0.6-0.5-1.2-1-1.9-1.5
			c-1.2-0.9-1.9-1.4-2-1.5c-0.6-0.5-1-1.3-1-2.1c0-0.2,0-0.4,0.1-0.6c0.1-0.8,0.6-1.6,1.3-2.1C3.5,85.1,4.1,85,4.8,85
			c0.3,0,0.7,0,1,0.1c0.7,0.1,1.3,0.4,1.8,0.8v0.8c-0.5-0.5-1.2-0.9-1.9-1c-0.3-0.1-0.6-0.1-0.8-0.1c-0.5,0-0.9,0.1-1.4,0.3
			c-0.7,0.5-1.1,1.3-1.1,2.2c0,0.4,0.2,0.8,0.5,1.1c0.6,0.6,1.2,1.1,1.8,1.5c1,0.7,1.9,1.4,2.8,2.3c0.5,0.4,0.7,1,0.7,1.7
			c0,0.3,0,0.5-0.1,0.8C8,96.3,7.6,97,6.9,97.5C6.2,97.9,5.4,98.1,4.6,98.1z"/>
		<path class="st0" d="M19.7,86.9c2.1,2.7,2.1,6.5,0,9.3c-1,1.2-2.5,1.9-4.1,1.9c-1.5,0-3-0.7-3.9-1.9c-2-2.8-2-6.5,0-9.3
			c0.9-1.2,2.4-1.9,3.9-1.9C17.2,85,18.7,85.7,19.7,86.9z M19.1,95.7c1.9-2.4,1.9-5.8,0-8.2c-0.8-1.1-2.1-1.7-3.5-1.7
			c-1.3,0-2.6,0.6-3.4,1.7c-1.6,2.5-1.6,5.7,0,8.2c0.8,1.1,2,1.7,3.4,1.7C16.9,97.4,18.2,96.7,19.1,95.7z"/>
		<path class="st0" d="M24.6,87.8c-0.5,1-0.8,2.2-0.8,3.3V92c0,1.2,0.3,2.3,0.8,3.3c0.3,0.5,0.8,1,1.3,1.4c0.8,0.5,1.7,0.7,2.6,0.7
			c0.6,0,1.4,0,2.5-0.2V98c-1,0.1-1.8,0.2-2.3,0.2c-1.2,0.1-2.4-0.2-3.4-0.9c-0.6-0.4-1.1-0.9-1.5-1.6c-0.6-1.1-0.8-2.4-0.8-3.6l0,0
			V91l0,0c0-1.2,0.3-2.5,0.8-3.6c0.4-0.6,0.9-1.2,1.5-1.6c1-0.6,2.2-0.9,3.4-0.8c0.5,0,1.3,0.1,2.3,0.1v0.8
			c-1.1-0.1-1.9-0.2-2.5-0.2c-0.9-0.1-1.8,0.2-2.6,0.7C25.3,86.8,24.9,87.3,24.6,87.8z"/>
		<path class="st0" d="M34.4,85.1v12.8h-0.8V85.1H34.4z"/>
		<path class="st0" d="M43.8,93.4h-5l-1.6,4.5h-0.8l4.5-12.8h0.8l4.6,12.8h-0.8L43.8,93.4z M43.5,92.6l-2.3-6.2L39,92.6H43.5z"/>
		<path class="st0" d="M54.8,96.8c-0.7,0.8-1.9,1.3-3.7,1.4c-1.1,0-2.2-0.1-3.3-0.2l0,0V85.1l0,0C48.5,85,49.2,85,50,85h0.9
			c0.8,0,1.6,0.3,2.2,0.7c0.7,0.4,1.2,1.2,1.2,2c0.2,1.2-0.4,2.4-1.5,3c0.7,0.2,1.3,0.6,1.8,1.1c0.5,0.6,0.8,1.3,0.9,2.1
			C55.6,94.9,55.4,95.9,54.8,96.8z M48.5,85.8v4.8h1.7c2.3,0,3.5-0.9,3.4-2.7c-0.1-0.7-0.5-1.3-1.1-1.6c-0.6-0.4-1.3-0.6-2-0.6
			C49.8,85.7,49.1,85.7,48.5,85.8L48.5,85.8z M54.1,96.3c0.5-0.6,0.7-1.5,0.6-2.3c0-0.8-0.5-1.6-1.2-2c-0.6-0.4-1.4-0.6-2.2-0.6
			h-2.9v5.9c0.7,0.1,1.5,0.1,2.2,0.1C51.9,97.4,53.2,97,54.1,96.3L54.1,96.3z"/>
		<path class="st0" d="M58.8,85.1v12.8H58V85.1H58.8z"/>
		<path class="st0" d="M68.4,97.1v0.8H62V85.1h0.8v12L68.4,97.1z"/>
		<path class="st0" d="M71.6,85.1v12.8h-0.8V85.1H71.6z"/>
		<path class="st0" d="M81.4,85.9h-3.3v12h-0.8v-12H74v-0.8h7.5L81.4,85.9z"/>
		<path class="st0" d="M87.6,91.7v6.2h-0.8v-6.2l-4.1-6.6h0.9l3.6,5.7l3.6-5.7h1l-4.1,6.5L87.6,91.7z"/>
	</g>
</g>
</svg>
